<svg xmlns="http://www.w3.org/2000/svg" width="224" height="96"><style>line, path, circle, rect, polygon{stroke:#29beb0;stroke-width:2;stroke-opacity:1;fill-opacity:1;stroke-linecap:round;stroke-linejoin:miter;}text{font-family:Iosevka Fixed, monospace;font-size:14px;}rect.backdrop{stroke:none;fill:none;}.broken{stroke-dasharray:8;}.filled{fill:black;}.bg_filled{fill:white;}.nofill{fill:white;}.end_marked_arrow{marker-end:url(#arrow);}.start_marked_arrow{marker-start:url(#arrow);}.end_marked_diamond{marker-end:url(#diamond);}.start_marked_diamond{marker-start:url(#diamond);}.end_marked_circle{marker-end:url(#circle);}.start_marked_circle{marker-start:url(#circle);}.end_marked_open_circle{marker-end:url(#open_circle);}.start_marked_open_circle{marker-start:url(#open_circle);}.end_marked_big_open_circle{marker-end:url(#big_open_circle);}.start_marked_big_open_circle{marker-start:url(#big_open_circle);}<!--separator--></style><defs><marker id="arrow" viewBox="-2 -2 8 8" refX="4" refY="2" markerWidth="7" markerHeight="7" orient="auto-start-reverse"><polygon points="0,0 0,4 4,2 0,0"></polygon></marker><marker id="diamond" viewBox="-2 -2 8 8" refX="4" refY="2" markerWidth="7" markerHeight="7" orient="auto-start-reverse"><polygon points="0,2 2,0 4,2 2,4 0,2"></polygon></marker><marker id="circle" viewBox="0 0 8 8" refX="4" refY="4" markerWidth="7" markerHeight="7" orient="auto-start-reverse"><circle cx="4" cy="4" r="2" class="filled"></circle></marker><marker id="open_circle" viewBox="0 0 8 8" refX="4" refY="4" markerWidth="7" markerHeight="7" orient="auto-start-reverse"><circle cx="4" cy="4" r="2" class="bg_filled"></circle></marker><marker id="big_open_circle" viewBox="0 0 8 8" refX="4" refY="4" markerWidth="7" markerHeight="7" orient="auto-start-reverse"><circle cx="4" cy="4" r="3" class="bg_filled"></circle></marker></defs><rect class="backdrop" x="0" y="0" width="224" height="96"></rect><line x1="0" y1="32" x2="24" y2="32" class="solid"></line><line x1="0" y1="48" x2="16" y2="48" class="solid"></line><line x1="72" y1="48" x2="88" y2="48" class="solid"></line><line x1="144" y1="64" x2="160" y2="64" class="solid"></line><g><line x1="0" y1="16" x2="116" y2="16" class="solid"></line><line x1="116" y1="16" x2="116" y2="48" class="solid"></line><line x1="40" y1="32" x2="96" y2="32" class="solid"></line><line x1="80" y1="16" x2="72" y2="32" class="solid"></line><line x1="32" y1="48" x2="48" y2="48" class="solid"></line><line x1="56" y1="32" x2="48" y2="48" class="solid"></line><line x1="32" y1="48" x2="24" y2="64" class="solid"></line><line x1="24" y1="64" x2="56" y2="64" class="solid"></line><line x1="0" y1="64" x2="8" y2="64" class="solid"></line><line x1="8" y1="64" x2="0" y2="80" class="solid"></line><line x1="0" y1="80" x2="48" y2="80" class="solid"></line><line x1="56" y1="64" x2="48" y2="80" class="solid"></line></g><g><line x1="136" y1="16" x2="172" y2="16" class="solid"></line><line x1="136" y1="16" x2="120" y2="48" class="solid"></line><line x1="152" y1="16" x2="120" y2="80" class="solid"></line><line x1="144" y1="32" x2="160" y2="32" class="solid"></line><line x1="172" y1="16" x2="172" y2="64" class="solid"></line><line x1="136" y1="48" x2="160" y2="48" class="solid"></line><line x1="108" y1="48" x2="108" y2="80" class="solid"></line><line x1="108" y1="80" x2="120" y2="80" class="solid"></line></g><g><line x1="200" y1="16" x2="216" y2="16" class="solid"></line><line x1="200" y1="16" x2="176" y2="64" class="solid"></line><line x1="216" y1="16" x2="184" y2="80" class="solid"></line><line x1="144" y1="80" x2="184" y2="80" class="solid"></line></g><g><line x1="72" y1="64" x2="80" y2="64" class="solid"></line><line x1="80" y1="64" x2="72" y2="80" class="solid"></line><line x1="104" y1="48" x2="88" y2="80" class="solid"></line><line x1="72" y1="80" x2="88" y2="80" class="solid"></line></g></svg>
